<svg width="1286" height="371" viewBox="0 0 1286 371" fill="none" xmlns="http://www.w3.org/2000/svg">
<path d="M741.869 312.7C739.069 311.7 734.049 313.8 734.049 313.8C732.879 306.66 724.819 296.8 724.819 296.8C724.819 296.8 740.889 311.75 741.819 312.68C741.989 312.32 746.969 301.52 736.869 292.12C721.779 278.07 692.869 251.65 692.869 251.8C694.869 258.25 706.489 279.14 700.369 317.8L715.249 320.61L717.039 323.61C717.039 323.61 734.039 325.88 736.719 328.37C736.719 328.37 742.589 332.45 736.299 338.06C736.299 338.06 745.909 336.19 751.299 330.9C751.299 330.9 756.239 326.65 750.419 320.74L741.749 312.67" fill="#4D4D4D"/>
<path d="M741.87 312.7L741.82 312.65L741.87 312.7Z" fill="#4D4D4D"/>
<path d="M682 327.18L694.14 349.34C694.14 349.34 706.58 343.96 711.44 350.17C715.44 355.28 712.16 361.33 708.2 366.37C707.98 366.65 709.7 358.82 703.26 357.87C695.84 356.79 686.05 361.66 681.67 370.53C681.67 370.53 677.39 363.53 682.43 357.62C682.43 357.62 656.11 342.09 634.91 312.8L613.85 303.62C613.85 303.62 581.14 313.95 574.57 315.81C558 320.49 553.32 317.35 548.1 312.31C543.1 307.45 535.45 299.97 535.45 299.97C540.139 302.921 545.807 303.892 551.21 302.67L591.44 293.9L585.37 291.15C585.37 291.15 547 297.53 540.55 298.08C534.1 298.63 531.03 295.42 527.25 292.18C527.25 292.18 513.62 278.88 513.7 278.92C521.8 283.42 523.49 282.78 529.57 282.51L560.12 280.13L553.24 277.13L518.24 277.08C509.86 277.08 504.14 269.89 501.98 267.91L489.25 256.05C489.25 256.05 493.93 260.2 507.91 260.2H602.83C529.71 216.69 440.94 163.72 437.35 161.53C431.23 157.85 417.35 150.78 422.23 140.66L433.84 115.82C433.84 115.82 433.3 125.82 440.32 130.12C446.14 133.71 604.81 239.29 604.81 239.29L603.37 232.45C603.37 232.45 439.69 118.45 433.75 114.4C427.81 110.35 413.59 101.53 419.35 87.75L431.23 63.28C431.23 63.28 430.23 73.22 438.43 79.38L602.65 205.47L602.5 199.9C602.5 199.9 437.35 66.24 432.31 62.19C427.27 58.14 420.07 50.53 424.75 38.43L442.21 0C442.21 0 438.16 12.69 448.42 22.68L661.63 221.68C661.63 221.68 707.46 260.55 698.46 317.79L682 327.18Z" fill="#4D4D4D"/>
<path d="M692.999 251.78C703.999 195.13 660.999 151.4 650.329 139.06C647.559 135.88 548.559 24.6398 548.559 24.6398C539.639 14.7498 543.279 7.08984 543.279 7.08984L531.709 33.0298C529.139 40.1498 533.939 44.7698 537.479 48.8398C541.019 52.9098 644.999 161.59 644.999 161.59L644.299 167.59L545.859 69.2398C537.289 60.4598 540.519 53.9998 540.519 53.9998L529.889 77.9298C527.489 85.3098 535.059 90.1798 540.289 95.2198C545.849 100.57 655.449 203.05 664.419 211.22C683.589 228.69 692.999 251.78 692.999 251.78Z" fill="#4D4D4D"/>
<path d="M700.309 246.44C700.902 246.44 701.482 246.616 701.976 246.945C702.469 247.275 702.854 247.744 703.081 248.292C703.308 248.84 703.367 249.443 703.251 250.025C703.136 250.607 702.85 251.142 702.43 251.561C702.011 251.981 701.476 252.266 700.894 252.382C700.312 252.498 699.709 252.439 699.161 252.212C698.613 251.984 698.144 251.6 697.815 251.107C697.485 250.613 697.309 250.033 697.309 249.44C697.302 249.044 697.375 248.651 697.524 248.284C697.672 247.917 697.893 247.583 698.173 247.303C698.453 247.024 698.786 246.803 699.153 246.654C699.52 246.506 699.913 246.433 700.309 246.44ZM700.309 246.91C699.802 246.886 699.3 247.014 698.867 247.278C698.434 247.543 698.089 247.93 697.879 248.392C697.668 248.853 697.6 249.367 697.684 249.868C697.768 250.368 698 250.832 698.35 251.199C698.7 251.566 699.152 251.821 699.648 251.929C700.143 252.037 700.66 251.994 701.131 251.806C701.602 251.618 702.006 251.293 702.291 250.873C702.576 250.453 702.728 249.957 702.729 249.45C702.737 249.124 702.681 248.8 702.563 248.496C702.446 248.192 702.27 247.914 702.045 247.678C701.821 247.443 701.552 247.253 701.254 247.121C700.956 246.99 700.635 246.918 700.309 246.91ZM699.749 251.18H699.219V247.83C699.55 247.781 699.884 247.754 700.219 247.75C700.571 247.738 700.918 247.828 701.219 248.01C701.324 248.09 701.407 248.196 701.461 248.316C701.515 248.436 701.538 248.568 701.529 248.7C701.531 248.89 701.468 249.076 701.35 249.225C701.231 249.375 701.065 249.479 700.879 249.52C701.169 249.58 701.369 249.84 701.429 250.34C701.459 250.623 701.533 250.9 701.649 251.16H701.089C700.961 250.893 700.883 250.605 700.859 250.31C700.856 250.222 700.834 250.136 700.795 250.057C700.756 249.978 700.701 249.908 700.632 249.852C700.564 249.796 700.485 249.756 700.4 249.733C700.315 249.71 700.226 249.706 700.139 249.72H699.769L699.749 251.18ZM699.749 249.33H700.129C700.579 249.33 700.949 249.17 700.949 248.76C700.949 248.35 700.739 248.17 700.129 248.17C700.003 248.157 699.875 248.157 699.749 248.17V249.33Z" fill="#4D4D4D"/>
<path d="M0 303H500V323H0V303Z" fill="#707070"/>
<path d="M786 306H1286V326H786V306Z" fill="#707070"/>
<line x1="786" y1="355.5" x2="1286" y2="355.5" stroke="black"/>
<line y1="355.5" x2="500" y2="355.5" stroke="black"/>
</svg>
