<svg viewBox="0 0 491 210" fill="none" xmlns="http://www.w3.org/2000/svg">
<g clip-path="url(#clip0_1727_2153)">
<path d="M178.951 177.94C178.951 177.94 181.791 176.75 183.381 177.32L183.371 177.31V177.3C182.821 176.77 173.721 168.31 173.721 168.31C173.721 168.31 178.291 173.9 178.951 177.94Z" fill="transparent"/>
<path d="M158.79 180.19L149.47 185.51L156.34 198.06C156.34 198.06 163.39 195.02 166.14 198.53C168.41 201.43 166.55 204.85 164.3 207.7C164.17 207.86 165.15 203.42 161.5 202.89C157.31 202.28 151.76 205.03 149.28 210.06C149.28 210.06 146.86 206.11 149.71 202.75C149.71 202.75 134.81 193.96 122.8 177.37L110.87 172.17C110.87 172.17 92.35 178.02 88.63 179.07C79.25 181.72 76.6 179.94 73.64 177.09C70.79 174.34 66.48 170.1 66.48 170.1C66.48 170.1 70.21 172.78 75.41 171.63L98.19 166.66L94.75 165.11C94.75 165.11 73.04 168.73 69.37 169.03C65.7 169.34 63.98 167.52 61.84 165.69C61.84 165.69 54.12 158.16 54.17 158.19C58.76 160.74 59.72 160.37 63.16 160.22L80.46 158.87L76.56 157.19C76.56 157.19 60.1 157.17 56.74 157.17C52 157.17 48.76 153.1 47.53 151.97L40.33 145.24C40.33 145.24 42.98 147.59 50.9 147.59L104.65 147.58C63.25 122.96 12.99 92.9595 10.95 91.7395C7.48004 89.6495 -0.359964 85.6495 2.39004 79.9195L8.96004 65.8595C8.96004 65.8595 8.65004 71.5195 12.63 73.9595C15.93 75.9895 105.76 135.77 105.76 135.77L104.94 131.9C104.94 131.9 12.26 67.3395 8.90004 65.0495C5.55004 62.7395 -2.49996 57.7495 0.760036 49.9495L7.49004 36.0895C7.49004 36.0895 6.95004 41.7195 11.57 45.2095L104.55 116.6L104.47 113.45C104.47 113.45 10.96 37.7795 8.11004 35.4795C5.26004 33.1895 1.18004 28.8595 3.83004 22.0295L13.72 0.269531C13.72 0.269531 11.43 7.45953 17.24 13.1095L137.96 125.78C137.94 125.78 163.89 147.78 158.79 180.19ZM188.78 187.64C185.71 190.63 180.27 191.7 180.27 191.7C183.83 188.52 180.51 186.21 180.51 186.21C179.01 184.8 169.37 183.52 169.37 183.52L168.36 181.81L159.93 180.22C163.4 158.31 156.84 146.48 155.68 142.83C155.68 142.83 150.37 129.76 139.52 119.87C134.45 115.25 72.39 57.2195 69.24 54.1895C66.28 51.3395 61.99 48.5795 63.36 44.3995L69.35 30.9195C69.37 30.8795 69.38 30.8495 69.38 30.8495L69.35 30.9195C69.14 31.4195 67.91 34.8895 72.4 39.4795L128.16 95.1495L128.55 91.7695C128.55 91.7695 69.65 30.2395 67.65 27.9395C65.65 25.6295 62.93 23.0195 64.38 18.9895L70.92 4.29953C70.93 4.28953 70.93 4.27953 70.93 4.27953L70.92 4.29953C70.78 4.61953 69.07 8.83953 73.92 14.2095C73.92 14.2095 129.98 77.1895 131.54 78.9995C137.61 85.9895 161.93 110.74 155.68 142.82C155.65 142.74 172.02 157.7 180.56 165.65C186.28 170.98 183.46 177.09 183.36 177.3C183.38 177.32 183.39 177.33 183.39 177.33C183.39 177.33 183.38 177.33 183.37 177.32L188.28 181.89C191.58 185.23 188.78 187.64 188.78 187.64Z" fill="transparent"/>
<path d="M183.379 177.32C183.379 177.32 183.389 177.32 183.399 177.33C183.399 177.33 183.389 177.32 183.369 177.3V177.31L183.379 177.32Z" fill="current"/>
<path d="M183.379 177.32C181.799 176.75 178.949 177.94 178.949 177.94C178.289 173.9 173.719 168.3 173.719 168.3C173.719 168.3 182.819 176.76 183.369 177.29C183.469 177.09 186.289 170.97 180.569 165.64C172.029 157.69 155.659 142.73 155.689 142.81C156.849 146.47 163.399 158.29 159.939 180.2L168.369 181.79L169.379 183.5C169.379 183.5 179.019 184.78 180.519 186.19C180.519 186.19 183.839 188.5 180.279 191.68C180.279 191.68 185.719 190.62 188.789 187.62C188.789 187.62 191.589 185.21 188.299 181.87L183.379 177.32Z" fill="current"/>
<path d="M137.94 125.78L17.22 13.1095C11.41 7.44953 13.7 0.269531 13.7 0.269531L3.81999 22.0295C1.16999 28.8495 5.24999 33.1895 8.09999 35.4795C10.95 37.7695 104.46 113.45 104.46 113.45L104.54 116.6L11.56 45.2095C6.94999 41.7195 7.47999 36.0895 7.47999 36.0895L0.759993 49.9495C-2.50001 57.7495 5.54999 62.7395 8.90999 65.0295C12.27 67.3195 104.95 131.88 104.95 131.88L105.77 135.75C105.77 135.75 15.94 75.9695 12.64 73.9395C8.66999 71.4995 8.96999 65.8395 8.96999 65.8395L2.38999 79.9095C-0.360007 85.6395 7.47999 89.6395 10.95 91.7295C12.98 92.9595 63.24 122.95 104.65 147.57L50.9 147.58C42.98 147.58 40.33 145.23 40.33 145.23L47.53 151.96C48.75 153.08 52 157.16 56.74 157.16C60.1 157.16 76.56 157.18 76.56 157.18L80.46 158.86L63.16 160.21C59.72 160.36 58.76 160.73 54.17 158.18C54.13 158.16 61.84 165.68 61.84 165.68C63.98 167.51 65.7 169.33 69.37 169.02C73.04 168.72 94.75 165.1 94.75 165.1L98.19 166.65L75.41 171.62C70.21 172.77 66.48 170.09 66.48 170.09C66.48 170.09 70.79 174.33 73.64 177.08C76.59 179.93 79.25 181.71 88.63 179.06C92.35 178.01 110.87 172.16 110.87 172.16L122.8 177.36C134.8 193.95 149.71 202.74 149.71 202.74C146.86 206.1 149.28 210.05 149.28 210.05C151.76 205.03 157.31 202.27 161.5 202.88C165.15 203.41 164.17 207.85 164.3 207.69C166.54 204.84 168.4 201.41 166.14 198.52C163.39 195.01 156.34 198.05 156.34 198.05L149.47 185.5L158.79 180.18C163.89 147.78 137.94 125.78 137.94 125.78Z" fill="current"/>
<path d="M131.54 78.9998C129.98 77.1998 73.9196 14.2098 73.9196 14.2098C69.0596 8.8298 70.7696 4.6198 70.9196 4.2998L64.3796 18.9698C62.9296 22.9998 65.6396 25.6098 67.6496 27.9198C69.6496 30.2298 128.55 91.7498 128.55 91.7498L128.16 95.1298L72.3896 39.4698C67.8996 34.8798 69.1296 31.3998 69.3396 30.9098L63.3496 44.3898C61.9896 48.5698 66.2696 51.3298 69.2296 54.1798C72.3796 57.2098 134.44 115.24 139.51 119.86C150.37 129.75 155.67 142.82 155.67 142.82C161.93 110.75 137.61 85.9898 131.54 78.9998Z" fill="current"/>
<path d="M70.9199 4.30027L70.9299 4.28027C70.9299 4.28027 70.9299 4.29027 70.9199 4.30027Z" fill="current"/>
<path d="M69.3398 30.9001L69.3699 30.8301C69.3699 30.8401 69.3598 30.8601 69.3398 30.9001Z" fill="current"/>
<path d="M221.16 151.016C224.328 151.016 226.92 151.496 228.936 152.456C231 153.368 232.824 154.448 234.408 155.696C235.368 156.416 236.088 156.512 236.568 155.984C237.096 155.408 237.456 154.088 237.648 152.024H239.304C239.208 153.896 239.136 156.2 239.088 158.936C239.04 161.672 239.016 165.272 239.016 169.736H237.36C237.168 167.48 236.856 165.512 236.424 163.832C236.04 162.152 235.464 160.664 234.696 159.368C233.928 158.072 232.824 156.92 231.384 155.912C230.28 155 229.032 154.304 227.64 153.824C226.296 153.296 224.904 153.032 223.464 153.032C220.824 153.032 218.592 153.776 216.768 155.264C214.992 156.704 213.552 158.624 212.448 161.024C211.392 163.376 210.624 166.016 210.144 168.944C209.712 171.824 209.496 174.728 209.496 177.656C209.496 180.632 209.736 183.584 210.216 186.512C210.696 189.392 211.464 192.008 212.52 194.36C213.624 196.712 215.088 198.608 216.912 200.048C218.736 201.44 220.968 202.136 223.608 202.136C225 202.136 226.368 201.896 227.712 201.416C229.104 200.936 230.352 200.24 231.456 199.328C233.568 197.888 234.984 196.016 235.704 193.712C236.472 191.36 237.024 188.312 237.36 184.568H239.016C239.016 189.224 239.04 192.992 239.088 195.872C239.136 198.704 239.208 201.08 239.304 203H237.648C237.456 200.936 237.12 199.64 236.64 199.112C236.208 198.584 235.464 198.656 234.408 199.328C232.632 200.576 230.736 201.68 228.72 202.64C226.752 203.552 224.208 204.008 221.088 204.008C215.856 204.008 211.248 202.976 207.264 200.912C203.328 198.848 200.256 195.872 198.048 191.984C195.888 188.096 194.808 183.416 194.808 177.944C194.808 172.568 195.936 167.864 198.192 163.832C200.448 159.8 203.544 156.656 207.48 154.4C211.464 152.144 216.024 151.016 221.16 151.016ZM254.636 203.504C252.428 203.504 250.604 203.096 249.164 202.28C247.724 201.416 246.668 200.288 245.996 198.896C245.324 197.504 244.988 196.016 244.988 194.432C244.988 192.416 245.444 190.76 246.356 189.464C247.316 188.168 248.54 187.136 250.028 186.368C251.516 185.552 253.076 184.88 254.708 184.352C256.34 183.824 257.9 183.32 259.388 182.84C260.876 182.312 262.076 181.712 262.988 181.04C263.9 180.32 264.355 179.408 264.355 178.304V172.328C264.355 171.272 264.188 170.288 263.852 169.376C263.564 168.416 263.012 167.648 262.195 167.072C261.428 166.448 260.348 166.136 258.956 166.136C258.092 166.136 257.252 166.256 256.436 166.496C255.62 166.736 254.9 167.12 254.276 167.648C255.812 168.176 256.94 168.968 257.66 170.024C258.428 171.08 258.812 172.256 258.812 173.552C258.812 175.328 258.188 176.744 256.94 177.8C255.74 178.808 254.3 179.312 252.62 179.312C250.796 179.312 249.38 178.736 248.372 177.584C247.412 176.432 246.932 175.04 246.932 173.408C246.932 171.968 247.292 170.768 248.012 169.808C248.732 168.8 249.788 167.888 251.18 167.072C252.572 166.256 254.252 165.656 256.22 165.272C258.188 164.888 260.276 164.696 262.484 164.696C264.74 164.696 266.804 164.936 268.676 165.416C270.596 165.848 272.228 166.736 273.572 168.08C274.628 169.184 275.3 170.528 275.588 172.112C275.876 173.696 276.02 175.712 276.02 178.16V197.6C276.02 198.8 276.116 199.64 276.308 200.12C276.548 200.552 276.908 200.768 277.388 200.768C277.82 200.768 278.228 200.648 278.612 200.408C278.996 200.168 279.38 199.904 279.764 199.616L280.556 200.84C279.5 201.704 278.252 202.376 276.812 202.856C275.372 203.288 273.812 203.504 272.132 203.504C270.212 203.504 268.7 203.264 267.596 202.784C266.54 202.256 265.772 201.56 265.292 200.696C264.86 199.832 264.62 198.872 264.572 197.816C263.516 199.544 262.196 200.936 260.612 201.992C259.028 203 257.036 203.504 254.636 203.504ZM260.612 198.32C261.38 198.32 262.052 198.176 262.628 197.888C263.252 197.552 263.828 197 264.355 196.232V181.256C263.972 181.928 263.444 182.576 262.772 183.2C262.148 183.776 261.476 184.376 260.756 185C260.036 185.576 259.34 186.224 258.668 186.944C258.044 187.664 257.516 188.528 257.084 189.536C256.7 190.496 256.508 191.672 256.508 193.064C256.508 194.936 256.892 196.28 257.66 197.096C258.428 197.912 259.412 198.32 260.612 198.32ZM310.177 164.696C312.289 164.696 313.969 164.96 315.217 165.488C316.513 166.016 317.497 166.688 318.169 167.504C318.937 168.416 319.489 169.592 319.825 171.032C320.209 172.472 320.401 174.416 320.401 176.864V196.304C320.401 198.32 320.713 199.688 321.337 200.408C322.009 201.128 323.137 201.488 324.721 201.488V203C323.761 202.952 322.321 202.904 320.401 202.856C318.529 202.76 316.705 202.712 314.929 202.712C312.961 202.712 311.065 202.76 309.241 202.856C307.417 202.904 306.049 202.952 305.137 203V201.488C306.481 201.488 307.417 201.128 307.945 200.408C308.473 199.688 308.737 198.32 308.737 196.304V173.408C308.737 172.304 308.617 171.368 308.377 170.6C308.137 169.784 307.729 169.184 307.153 168.8C306.577 168.368 305.761 168.152 304.705 168.152C303.601 168.152 302.569 168.44 301.609 169.016C300.697 169.592 299.953 170.408 299.377 171.464C298.849 172.472 298.585 173.624 298.585 174.92V196.304C298.585 198.32 298.849 199.688 299.377 200.408C299.905 201.128 300.841 201.488 302.185 201.488V203C301.273 202.952 299.953 202.904 298.225 202.856C296.497 202.76 294.745 202.712 292.969 202.712C291.001 202.712 289.033 202.76 287.065 202.856C285.097 202.904 283.609 202.952 282.601 203V201.488C284.185 201.488 285.289 201.128 285.913 200.408C286.585 199.688 286.921 198.32 286.921 196.304V173.552C286.921 171.392 286.609 169.808 285.985 168.8C285.361 167.744 284.233 167.216 282.601 167.216V165.704C284.137 165.848 285.625 165.92 287.065 165.92C289.225 165.92 291.265 165.848 293.185 165.704C295.153 165.512 296.953 165.248 298.585 164.912V170.744C299.737 168.536 301.297 166.976 303.265 166.064C305.281 165.152 307.585 164.696 310.177 164.696ZM342.803 153.968V165.704H350.579V167.144H342.803V196.592C342.803 197.792 343.019 198.656 343.451 199.184C343.883 199.664 344.531 199.904 345.395 199.904C346.115 199.904 346.859 199.664 347.627 199.184C348.443 198.704 349.187 197.888 349.859 196.736L351.011 197.456C350.099 199.424 348.827 201.008 347.195 202.208C345.611 203.408 343.523 204.008 340.931 204.008C339.347 204.008 337.931 203.792 336.683 203.36C335.483 202.976 334.475 202.376 333.659 201.56C332.603 200.504 331.907 199.208 331.571 197.672C331.283 196.088 331.139 194.048 331.139 191.552V167.144H325.379V165.704H331.139V156.704C333.395 156.704 335.459 156.488 337.331 156.056C339.251 155.624 341.075 154.928 342.803 153.968ZM370.934 164.696C375.158 164.696 378.47 165.944 380.87 168.44C383.27 170.936 384.47 175.04 384.47 180.752H361.358L361.286 179.384H374.678C374.774 177.032 374.678 174.872 374.39 172.904C374.102 170.888 373.622 169.28 372.95 168.08C372.326 166.88 371.486 166.28 370.43 166.28C368.99 166.28 367.766 167.312 366.758 169.376C365.75 171.44 365.126 174.944 364.886 179.888L365.174 180.392C365.078 180.92 365.03 181.472 365.03 182.048C365.03 182.576 365.03 183.152 365.03 183.776C365.03 187.088 365.462 189.728 366.326 191.696C367.238 193.664 368.366 195.056 369.71 195.872C371.054 196.688 372.446 197.096 373.886 197.096C374.702 197.096 375.614 196.976 376.622 196.736C377.63 196.496 378.686 195.992 379.79 195.224C380.894 194.456 381.95 193.328 382.958 191.84L384.182 192.272C383.654 194.144 382.742 195.992 381.446 197.816C380.198 199.592 378.59 201.08 376.622 202.28C374.654 203.432 372.278 204.008 369.494 204.008C366.326 204.008 363.494 203.36 360.998 202.064C358.502 200.72 356.51 198.632 355.022 195.8C353.582 192.92 352.862 189.176 352.862 184.568C352.862 180.008 353.654 176.264 355.238 173.336C356.822 170.408 358.982 168.248 361.718 166.856C364.454 165.416 367.526 164.696 370.934 164.696ZM407.215 164.696C411.439 164.696 414.751 165.944 417.151 168.44C419.551 170.936 420.751 175.04 420.751 180.752H397.639L397.567 179.384H410.959C411.055 177.032 410.959 174.872 410.671 172.904C410.383 170.888 409.903 169.28 409.231 168.08C408.607 166.88 407.767 166.28 406.711 166.28C405.271 166.28 404.047 167.312 403.039 169.376C402.031 171.44 401.407 174.944 401.167 179.888L401.455 180.392C401.359 180.92 401.311 181.472 401.311 182.048C401.311 182.576 401.311 183.152 401.311 183.776C401.311 187.088 401.743 189.728 402.607 191.696C403.519 193.664 404.647 195.056 405.991 195.872C407.335 196.688 408.727 197.096 410.167 197.096C410.983 197.096 411.895 196.976 412.903 196.736C413.911 196.496 414.967 195.992 416.071 195.224C417.175 194.456 418.231 193.328 419.239 191.84L420.463 192.272C419.935 194.144 419.023 195.992 417.727 197.816C416.479 199.592 414.871 201.08 412.903 202.28C410.935 203.432 408.559 204.008 405.775 204.008C402.607 204.008 399.775 203.36 397.279 202.064C394.783 200.72 392.791 198.632 391.303 195.8C389.863 192.92 389.143 189.176 389.143 184.568C389.143 180.008 389.935 176.264 391.519 173.336C393.103 170.408 395.263 168.248 397.999 166.856C400.735 165.416 403.807 164.696 407.215 164.696ZM451.646 164.696C453.758 164.696 455.438 164.96 456.686 165.488C457.982 166.016 458.966 166.688 459.638 167.504C460.406 168.416 460.958 169.592 461.294 171.032C461.678 172.472 461.87 174.416 461.87 176.864V196.304C461.87 198.32 462.182 199.688 462.806 200.408C463.478 201.128 464.606 201.488 466.19 201.488V203C465.23 202.952 463.79 202.904 461.87 202.856C459.998 202.76 458.174 202.712 456.398 202.712C454.43 202.712 452.534 202.76 450.71 202.856C448.886 202.904 447.518 202.952 446.606 203V201.488C447.95 201.488 448.886 201.128 449.414 200.408C449.942 199.688 450.206 198.32 450.206 196.304V173.408C450.206 172.304 450.086 171.368 449.846 170.6C449.606 169.784 449.198 169.184 448.622 168.8C448.046 168.368 447.23 168.152 446.174 168.152C445.07 168.152 444.038 168.44 443.078 169.016C442.166 169.592 441.422 170.408 440.846 171.464C440.318 172.472 440.054 173.624 440.054 174.92V196.304C440.054 198.32 440.318 199.688 440.846 200.408C441.374 201.128 442.31 201.488 443.654 201.488V203C442.742 202.952 441.422 202.904 439.694 202.856C437.966 202.76 436.214 202.712 434.438 202.712C432.47 202.712 430.502 202.76 428.534 202.856C426.566 202.904 425.078 202.952 424.07 203V201.488C425.654 201.488 426.758 201.128 427.382 200.408C428.054 199.688 428.39 198.32 428.39 196.304V173.552C428.39 171.392 428.078 169.808 427.454 168.8C426.83 167.744 425.702 167.216 424.07 167.216V165.704C425.606 165.848 427.094 165.92 428.534 165.92C430.694 165.92 432.734 165.848 434.654 165.704C436.622 165.512 438.422 165.248 440.054 164.912V170.744C441.206 168.536 442.766 166.976 444.734 166.064C446.75 165.152 449.054 164.696 451.646 164.696Z" fill="current"/>
<path d="M265.528 20.376V22.936C262.883 23.3627 260.877 24.1733 259.512 25.368C258.147 26.5627 257.251 28.3973 256.824 30.872C256.397 33.3467 256.184 36.8453 256.184 41.368V73.752C256.184 79.2133 255.8 84.248 255.032 88.856C254.349 93.464 252.984 97.4747 250.936 100.888C248.717 104.557 245.432 107.459 241.08 109.592C236.728 111.725 231.096 112.792 224.184 112.792C220.259 112.792 216.163 112.323 211.896 111.384C207.715 110.531 203.96 108.909 200.632 106.52C197.816 104.301 195.64 101.699 194.104 98.712C192.653 95.7253 191.672 92.2267 191.16 88.216C190.648 84.12 190.392 79.4267 190.392 74.136V33.944C190.392 30.7867 190.136 28.4827 189.624 27.032C189.197 25.496 188.301 24.472 186.936 23.96C185.656 23.3627 183.693 23.0213 181.048 22.936V20.376C183.352 20.4613 186.424 20.5467 190.264 20.632C194.104 20.7173 198.115 20.76 202.296 20.76C206.477 20.76 210.488 20.7173 214.328 20.632C218.168 20.5467 221.368 20.4613 223.928 20.376V22.936C221.027 23.0213 218.808 23.3627 217.272 23.96C215.821 24.472 214.84 25.496 214.328 27.032C213.816 28.4827 213.56 30.7867 213.56 33.944V84.248C213.56 88.4293 213.859 92.056 214.456 95.128C215.139 98.2 216.12 100.717 217.4 102.68C218.765 104.643 220.515 106.093 222.648 107.032C224.781 107.885 227.341 108.312 230.328 108.312C236.216 108.312 240.824 106.947 244.152 104.216C247.48 101.4 249.827 97.4747 251.192 92.44C252.557 87.4053 253.24 81.6453 253.24 75.16V43.416C253.24 38.2107 252.984 34.2427 252.472 31.512C251.96 28.696 250.808 26.6907 249.016 25.496C247.224 24.216 244.408 23.3627 240.568 22.936V20.376C242.189 20.4613 244.323 20.5467 246.968 20.632C249.699 20.7173 252.259 20.76 254.648 20.76C256.611 20.76 258.573 20.7173 260.536 20.632C262.584 20.5467 264.248 20.4613 265.528 20.376ZM357.1 20.376V22.936C354.54 23.3627 352.577 24.1733 351.212 25.368C349.847 26.5627 348.908 28.3973 348.396 30.872C347.969 33.3467 347.756 36.8453 347.756 41.368V111.128C346.647 110.957 345.452 110.872 344.172 110.872C342.892 110.872 341.527 110.957 340.076 111.128L283.884 44.952V87.96C283.884 93.1653 284.14 97.176 284.652 99.992C285.164 102.723 286.316 104.685 288.108 105.88C289.9 107.075 292.716 107.928 296.556 108.44V111C294.935 110.829 292.759 110.744 290.028 110.744C287.383 110.659 284.865 110.616 282.476 110.616C280.599 110.616 278.636 110.659 276.588 110.744C274.625 110.744 272.961 110.829 271.596 111V108.44C274.327 107.928 276.332 107.117 277.612 106.008C278.977 104.813 279.873 102.979 280.3 100.504C280.727 97.944 280.94 94.4453 280.94 90.008V33.944C280.94 30.7867 280.727 28.4827 280.3 27.032C279.873 25.496 278.977 24.472 277.612 23.96C276.247 23.3627 274.241 23.0213 271.596 22.936V20.376C272.961 20.4613 274.625 20.5467 276.588 20.632C278.636 20.7173 280.599 20.76 282.476 20.76C284.609 20.76 286.657 20.7173 288.62 20.632C290.583 20.5467 292.375 20.4613 293.996 20.376L344.812 78.488V43.416C344.812 38.2107 344.556 34.2427 344.044 31.512C343.617 28.696 342.508 26.6907 340.716 25.496C339.009 24.216 336.151 23.3627 332.14 22.936V20.376C333.847 20.4613 336.023 20.5467 338.668 20.632C341.399 20.7173 343.916 20.76 346.22 20.76C348.268 20.76 350.273 20.7173 352.236 20.632C354.199 20.5467 355.82 20.4613 357.1 20.376ZM444.852 20.376C444.511 25.0693 444.255 29.592 444.084 33.944C443.999 38.296 443.956 41.624 443.956 43.928C443.956 45.8053 443.999 47.5547 444.084 49.176C444.169 50.7973 444.255 52.2053 444.34 53.4H441.396C439.689 45.8053 437.641 39.832 435.252 35.48C432.863 31.0427 430.132 27.928 427.06 26.136C424.073 24.2587 420.831 23.32 417.332 23.32H415.796V96.408C415.796 99.9067 416.137 102.509 416.82 104.216C417.588 105.923 418.953 107.075 420.916 107.672C422.964 108.184 425.908 108.44 429.748 108.44V111C426.932 110.915 423.135 110.829 418.356 110.744C413.663 110.659 408.756 110.616 403.636 110.616C398.601 110.616 393.865 110.659 389.428 110.744C384.991 110.829 381.407 110.915 378.676 111V108.44C382.516 108.44 385.46 108.184 387.508 107.672C389.556 107.075 390.921 105.923 391.604 104.216C392.287 102.509 392.628 99.9067 392.628 96.408V23.32H391.22C387.636 23.32 384.351 24.2587 381.364 26.136C378.377 27.928 375.689 31 373.3 35.352C370.911 39.704 368.82 45.72 367.028 53.4H364.084C364.255 52.2053 364.34 50.7973 364.34 49.176C364.425 47.5547 364.468 45.8053 364.468 43.928C364.468 41.624 364.383 38.296 364.212 33.944C364.127 29.592 363.913 25.0693 363.572 20.376C367.583 20.4613 371.977 20.5467 376.756 20.632C381.62 20.7173 386.441 20.76 391.22 20.76C395.999 20.76 400.351 20.76 404.276 20.76C408.201 20.76 412.553 20.76 417.332 20.76C422.196 20.76 427.017 20.7173 431.796 20.632C436.575 20.5467 440.927 20.4613 444.852 20.376Z" fill="current"/>
</g>
<defs>
<clipPath id="clip0_1727_2153">
<rect width="491" height="210" fill="white"/>
</clipPath>
</defs>
</svg>
